<?xml version="1.0" standalone="no"?>
<!DOCTYPE svg PUBLIC "-//W3C//DTD SVG 20010904//EN"
 "http://www.w3.org/TR/2001/REC-SVG-20010904/DTD/svg10.dtd">
<svg version="1.0" xmlns="http://www.w3.org/2000/svg"
 width="512.000000pt" height="512.000000pt" viewBox="0 0 512.000000 512.000000"
 preserveAspectRatio="xMidYMid meet">
<metadata>
Created by potrace 1.11, written by Peter Selinger 2001-2013
</metadata>
<g transform="translate(0.000000,512.000000) scale(0.100000,-0.100000)"
fill="#000000" stroke="none">
<path d="M2758 4245 c-2 -2 -35 -6 -75 -9 -138 -11 -265 -34 -459 -81 -137
-33 -129 -31 -194 -50 -30 -9 -68 -20 -85 -25 -65 -17 -318 -113 -404 -152
-25 -11 -66 -29 -91 -40 -25 -11 -90 -44 -145 -74 -212 -116 -269 -166 -333
-293 -56 -111 -82 -233 -85 -408 -1 -105 19 -155 72 -176 63 -26 126 -11 306
68 179 79 309 130 420 165 55 18 105 33 110 36 6 2 -39 2 -98 -1 -60 -3 -112
-7 -115 -9 -4 -2 -29 -6 -57 -10 -27 -3 -59 -8 -70 -10 -218 -44 -258 -15 -91
68 84 41 320 136 339 136 7 0 17 4 23 8 7 7 70 29 104 37 3 1 43 13 90 28 114
35 384 103 442 111 26 4 67 10 92 15 54 10 63 5 38 -23 -27 -30 -182 -245
-311 -431 -61 -88 -114 -164 -118 -170 -32 -42 -255 -385 -350 -541 -261 -425
-502 -900 -527 -1039 -36 -198 -24 -398 26 -453 43 -45 74 -52 243 -52 133 0
181 3 320 20 75 10 94 12 155 25 14 2 36 6 50 9 236 39 638 182 908 323 144
75 377 221 462 290 161 130 205 169 311 278 284 293 470 621 536 945 33 163
37 406 9 545 -29 147 -69 261 -123 358 -18 33 -33 61 -33 63 0 3 -5 10 -10 17
-6 7 -29 37 -53 67 -177 229 -419 355 -817 426 -36 6 -407 14 -412 9z m432
-639 c391 -45 647 -214 729 -480 27 -87 31 -120 31 -231 0 -111 -11 -179 -45
-281 -56 -166 -168 -337 -330 -500 -100 -101 -294 -258 -383 -309 -9 -5 -51
-30 -92 -56 -223 -135 -506 -252 -769 -319 -64 -16 -132 -32 -151 -35 -19 -3
-42 -8 -50 -10 -8 -2 -35 -6 -60 -9 -304 -36 -504 -19 -539 47 -36 67 -15 125
156 437 50 91 108 199 131 240 113 212 219 388 410 685 392 608 398 619 371
759 -5 27 -7 51 -4 54 2 3 42 7 87 9 46 3 84 6 85 7 5 5 368 -2 423 -8z"/>
</g>
</svg>
